<?xml version="1.0" standalone="no"?><!DOCTYPE svg PUBLIC "-//W3C//DTD SVG 1.1//EN" "http://www.w3.org/Graphics/SVG/1.1/DTD/svg11.dtd"><svg xmlns:xlink="http://www.w3.org/1999/xlink" version="1.1" style="font-family:dosis, sans-serif;font-size:12px;" xmlns="http://www.w3.org/2000/svg" width="600" height="400"><desc>Created with Highcharts 4.0.4</desc><defs><radialGradient cx="0.5" cy="0.3" r="0.7" id="highcharts-101"><stop offset="0" stop-color="#4bd913" stop-opacity="1"></stop><stop offset="1" stop-color="rgb(0,141,0)" stop-opacity="1"></stop></radialGradient><radialGradient cx="0.5" cy="0.3" r="0.7" id="highcharts-102"><stop offset="0" stop-color="#63a1d2" stop-opacity="1"></stop><stop offset="1" stop-color="rgb(23,85,134)" stop-opacity="1"></stop></radialGradient><radialGradient cx="0.5" cy="0.3" r="0.7" id="highcharts-103"><stop offset="0" stop-color="#DDDF00" stop-opacity="1"></stop><stop offset="1" stop-color="rgb(145,147,0)" stop-opacity="1"></stop></radialGradient><clipPath id="highcharts-104"><rect x="0" y="0" width="580" height="301"></rect></clipPath><radialGradient cx="290" cy="109.2" r="163.79999999999998" id="highcharts-105" gradientUnits="userSpaceOnUse"><stop offset="0" stop-color="#4bd913" stop-opacity="1"></stop><stop offset="1" stop-color="rgb(0,141,0)" stop-opacity="1"></stop></radialGradient><radialGradient cx="290" cy="109.2" r="163.79999999999998" id="highcharts-106" gradientUnits="userSpaceOnUse"><stop offset="0" stop-color="#63a1d2" stop-opacity="1"></stop><stop offset="1" stop-color="rgb(23,85,134)" stop-opacity="1"></stop></radialGradient><radialGradient cx="290" cy="109.2" r="163.79999999999998" id="highcharts-107" gradientUnits="userSpaceOnUse"><stop offset="0" stop-color="#DDDF00" stop-opacity="1"></stop><stop offset="1" stop-color="rgb(145,147,0)" stop-opacity="1"></stop></radialGradient></defs><g class="highcharts-series-group" ><g class="highcharts-series" visibility="visible"  transform="translate(10,45) scale(1 1)"><g class="highcharts-shadow"><g class="highcharts-shadow" transform="translate(0,0)"><path fill="none" d="M 289.9761702351677 39.0000024267423 A 117 117 0 1 1 209.78808768229987 70.82342386349644 L 290 156 A 0 0 0 1 0 290 156 Z" stroke="black" stroke-width="5" stroke-linejoin="round" transform="translate(1, 1)"  stroke-opacity="0.049999999999999996"></path><path fill="none" d="M 289.9761702351677 39.0000024267423 A 117 117 0 1 1 209.78808768229987 70.82342386349644 L 290 156 A 0 0 0 1 0 290 156 Z" stroke="black" stroke-width="3" stroke-linejoin="round" transform="translate(1, 1)"  stroke-opacity="0.09999999999999999"></path><path fill="none" d="M 289.9761702351677 39.0000024267423 A 117 117 0 1 1 209.78808768229987 70.82342386349644 L 290 156 A 0 0 0 1 0 290 156 Z" stroke="black" stroke-width="1" stroke-linejoin="round" transform="translate(1, 1)"  stroke-opacity="0.15"></path></g><g class="highcharts-shadow" transform="translate(0,0)"><path fill="none" d="M 209.8733043501931 70.74325455283191 A 117 117 0 0 1 275.2518275744144 39.933245887958094 L 290 156 A 0 0 0 0 0 290 156 Z" stroke="black" stroke-width="5" stroke-linejoin="round" transform="translate(1, 1)"  stroke-opacity="0.049999999999999996"></path><path fill="none" d="M 209.8733043501931 70.74325455283191 A 117 117 0 0 1 275.2518275744144 39.933245887958094 L 290 156 A 0 0 0 0 0 290 156 Z" stroke="black" stroke-width="3" stroke-linejoin="round" transform="translate(1, 1)"  stroke-opacity="0.09999999999999999"></path><path fill="none" d="M 209.8733043501931 70.74325455283191 A 117 117 0 0 1 275.2518275744144 39.933245887958094 L 290 156 A 0 0 0 0 0 290 156 Z" stroke="black" stroke-width="1" stroke-linejoin="round" transform="translate(1, 1)"  stroke-opacity="0.15"></path></g><g class="highcharts-shadow" transform="translate(0,0)"><path fill="none" d="M 275.3679016832676 39.918555751362746 A 117 117 0 0 1 289.83748934724565 39.000112862072626 L 290 156 A 0 0 0 0 0 290 156 Z" stroke="black" stroke-width="5" stroke-linejoin="round" transform="translate(1, 1)"  stroke-opacity="0.049999999999999996"></path><path fill="none" d="M 275.3679016832676 39.918555751362746 A 117 117 0 0 1 289.83748934724565 39.000112862072626 L 290 156 A 0 0 0 0 0 290 156 Z" stroke="black" stroke-width="3" stroke-linejoin="round" transform="translate(1, 1)"  stroke-opacity="0.09999999999999999"></path><path fill="none" d="M 275.3679016832676 39.918555751362746 A 117 117 0 0 1 289.83748934724565 39.000112862072626 L 290 156 A 0 0 0 0 0 290 156 Z" stroke="black" stroke-width="1" stroke-linejoin="round" transform="translate(1, 1)"  stroke-opacity="0.15"></path></g></g><path fill="url(#highcharts-105)" d="M 289.9761702351677 39.0000024267423 A 117 117 0 1 1 209.78808768229987 70.82342386349644 L 290 156 A 0 0 0 1 0 290 156 Z" stroke="#FFFFFF" stroke-width="1" stroke-linejoin="round" transform="translate(0,0)"></path><path fill="url(#highcharts-106)" d="M 209.8733043501931 70.74325455283191 A 117 117 0 0 1 275.2518275744144 39.933245887958094 L 290 156 A 0 0 0 0 0 290 156 Z" stroke="#FFFFFF" stroke-width="1" stroke-linejoin="round" transform="translate(0,0)"></path><path fill="url(#highcharts-107)" d="M 275.3679016832676 39.918555751362746 A 117 117 0 0 1 289.83748934724565 39.000112862072626 L 290 156 A 0 0 0 0 0 290 156 Z" stroke="#FFFFFF" stroke-width="1" stroke-linejoin="round" transform="translate(0,0)"></path></g><g class="highcharts-markers" visibility="visible"  transform="translate(10,45) scale(1 1)"></g></g><text x="300" text-anchor="middle" class="highcharts-title"  style="color:#333;font-size:16px;font-family:dosis, sans-serif;text-transform:uppercase;font-weight:bold;fill:#333;width:536px;" y="23"><tspan>Proportions of Investments</tspan></text><g class="highcharts-data-labels" visibility="visible"  transform="translate(10,45) scale(1 1)" opacity="1"><path fill="none" d="M 349.11430924464776 292.6771434255729 C 344.11430924464776 292.6771434255729 341.16931282317023 285.23893153846694 337.1199427436388 275.0113901936962 L 333.0705726641073 264.7838488489254" stroke="url(#highcharts-101)" stroke-width="1"></path><path fill="none" d="M 216.37784614280895 26 C 221.37784614280895 26 230.81667847245487 30.229039707223308 235.50025067967067 40.18213728434952 L 240.18382288688647 50.13523486147574" stroke="url(#highcharts-102)" stroke-width="1"></path><path fill="none" d="M 275.76979362919093 9 C 280.76979362919093 9 281.2721177854255 17.27428474847025 281.96281350024793 28.25257876118124 L 282.65350921507036 39.23087277389223" stroke="url(#highcharts-103)" stroke-width="1"></path><g  style="cursor:pointer;" transform="translate(354,283)"><text x="3"  style="font-size:10px;font-family:'arial', sans-serif;color:#333;fill:#333;" y="14"><tspan>Private Partner : 88 %</tspan></text></g><g  style="cursor:pointer;" transform="translate(122,16)"><text x="3"  style="font-size:10px;font-family:'arial', sans-serif;color:#333;fill:#333;" y="14"><tspan>Government : 10 %</tspan></text></g><g  style="cursor:pointer;" transform="translate(205,-1)"><text x="3"  style="font-size:10px;font-family:'arial', sans-serif;color:#333;fill:#333;" y="14"><tspan>Farmers : 2 %</tspan></text></g></g><g class="highcharts-legend"  transform="translate(151,366)"><g ><g><g class="highcharts-legend-item"  transform="translate(8,3)"><text x="21" style="color:#333;font-size:13px;font-weight:bold;cursor:pointer;font-family:dosis, sans-serif;text-transform:none;fill:#333;" text-anchor="start"  y="16"><tspan>Private Partner</tspan></text><rect x="0" y="5" width="16" height="12"  fill="url(#highcharts-101)"></rect></g><g class="highcharts-legend-item"  transform="translate(128.078125,3)"><text x="21" y="16" style="color:#333;font-size:13px;font-weight:bold;cursor:pointer;font-family:dosis, sans-serif;text-transform:none;fill:#333;" text-anchor="start" >Government</text><rect x="0" y="5" width="16" height="12"  fill="url(#highcharts-102)"></rect></g><g class="highcharts-legend-item"  transform="translate(233.53125,3)"><text x="21" y="16" style="color:#333;font-size:13px;font-weight:bold;cursor:pointer;font-family:dosis, sans-serif;text-transform:none;fill:#333;" text-anchor="start" >Farmers</text><rect x="0" y="5" width="16" height="12"  fill="url(#highcharts-103)"></rect></g></g></g></g><g class="highcharts-tooltip"  style="cursor:default;padding:0;white-space:nowrap;" transform="translate(0,-9999)"><path fill="rgb(219,219,216)" fill-opacity="0.8" d="M 3 0 L 13 0 C 16 0 16 0 16 3 L 16 13 C 16 16 16 16 13 16 L 3 16 C 0 16 0 16 0 13 L 0 3 C 0 0 0 0 3 0"></path><text x="8"  style="font-size:12px;color:#333;fill:#333;" y="21"></text></g><text x="590" text-anchor="end"  style="cursor:pointer;color:#666;font-size:9px;fill:#666;" y="395">meta-chart.com</text></svg>